<?xml version="1.0" encoding="utf-8"?>
<!-- Generator: Adobe Illustrator 25.2.1, SVG Export Plug-In . SVG Version: 6.00 Build 0)  -->
<svg version="1.1" id="Layer_1" xmlns="http://www.w3.org/2000/svg" xmlns:xlink="http://www.w3.org/1999/xlink" x="0px" y="0px"
	 viewBox="0 0 60.33 30" style="enable-background:new 0 0 60.33 30;" xml:space="preserve">
<style type="text/css">
	.st0{fill-rule:evenodd;clip-rule:evenodd;fill:#BC8336;}
	.st1{fill-rule:evenodd;clip-rule:evenodd;fill:#FFFFFF;}
</style>
<path class="st0" d="M50.73,30h-40.2h-1.2l-9-15l9-15h18h6h18l9,15l-9,15H50.73z"/>
<path class="st1" d="M53.21,17.17l-2.12-2.12l2.12-2.12l2.12,2.12L53.21,17.17z M23.31,15l3.82-3.82l2.59,2.59L28.49,15l7.63,7.62
	L43.75,15l-7.62-7.62l-2.65,2.65l-2.59-2.59l5.24-5.24L48.93,15L36.12,27.81L23.31,15z M33.48,18.82l-2.59-2.59L32.11,15l-7.62-7.62
	L16.86,15l7.63,7.62l2.65-2.64l2.59,2.59l-5.24,5.24L11.68,15L24.49,2.19L37.3,15L33.48,18.82z M5.33,15.05l2.12-2.12l2.12,2.12
	l-2.12,2.12L5.33,15.05z"/>
</svg>
