<svg 
 xmlns="http://www.w3.org/2000/svg"
 xmlns:xlink="http://www.w3.org/1999/xlink"
 width="1300px" height="666px">
<path fill-rule="evenodd"  fill="#2c6f98"
 d="M1244.922,389.457 L1189.762,334.302 L1244.922,279.244 L1299.985,334.302 L1244.922,389.457 ZM467.572,332.953 L566.995,233.635 L634.306,300.940 L602.290,332.953 L800.653,531.201 L998.920,332.953 L800.653,134.705 L731.800,203.551 L664.393,136.151 L800.653,0.000 L1133.638,332.953 L800.653,666.001 L467.572,332.953 ZM731.800,432.366 L664.393,364.965 L696.409,332.953 L498.142,134.705 L299.874,332.953 L498.142,531.201 L566.995,462.450 L634.306,529.754 L498.142,666.001 L165.157,332.953 L498.142,0.000 L831.126,332.953 L731.800,432.366 ZM0.014,334.302 L55.175,279.244 L110.238,334.302 L55.175,389.457 L0.014,334.302 Z"/>
</svg>